<svg id="Layer_1" data-name="Layer 1" xmlns="http://www.w3.org/2000/svg" viewBox="0 0 100 100"><defs><style>.cls-1{fill:none;stroke:#444;stroke-miterlimit:10;stroke-width:3.26px;}.cls-2{fill:#444;}</style></defs><path class="cls-1" d="M33.82,13.16l.36-.21a7.5,7.5,0,0,1,10.27,2.66l7,10.9A15.24,15.24,0,1,0,37.71,32.4l-6-11.15A5.91,5.91,0,0,1,33.82,13.16Z"/><path class="cls-1" d="M21.81,63.86a7.73,7.73,0,0,1-2.65-2.32c-1.34-2.25.11-5.31,2-7.22a8.74,8.74,0,0,1,.93-.8,6.1,6.1,0,0,1,4.46-.8c3.74.43,9.36,2.72,12.42,6.14.1.11.21.22.31.34,0-.28,0-.54,0-.82a15.28,15.28,0,1,0-8.72,13.77c-1.3-1.61-2.45-3.05-3.28-4.12C25.59,65.76,23.21,64.77,21.81,63.86Z"/><path class="cls-2" d="M87.07,45.52a6.7,6.7,0,0,0-5,.22l-.34,0h-.1a5.73,5.73,0,0,0-4.72-4.47,7.85,7.85,0,0,0-6.17,1.25c-1.21-2.61-3.64-4-6.93-3.69a6.56,6.56,0,0,0-5.4,3.38l-.07-4.08a2.15,2.15,0,0,0,0,.39,5.5,5.5,0,0,0-.16-1.15l0,0a5.13,5.13,0,0,0-.66-1.47h0l0,0v0l-.31-.48h0v0l-5.68-8.84-7-10.9A7.5,7.5,0,0,0,34.18,13l-.36.21a5.91,5.91,0,0,0-2.1,8.09l6,11.15,5.75,10.71L43.34,47c-.16.68-.25,16.18-.25,16.18-1.21-1.23-2.54-2.62-3.77-4-.1-.12-.21-.23-.31-.34-3.06-3.42-8.68-5.71-12.42-6.14a6.1,6.1,0,0,0-4.46.8,8.74,8.74,0,0,0-.93.8c-1.93,1.91-3.38,5-2,7.22a7.73,7.73,0,0,0,2.65,2.32c1.4.91,3.78,1.9,5.56,4.17.83,1.07,2,2.51,3.28,4.12C34,76.31,38.45,81.66,41.51,85c.89.55,2.76,2.41,3.64,2.88A33.65,33.65,0,0,1,50.78,92a27.24,27.24,0,0,0,4.1,2.48c2.84,1.8,8,3.48,14,3.48s11.37.35,15.36-3.16h.22l.11-.27A19.75,19.75,0,0,0,91.13,80V52.68C91.13,51.34,90.84,46.87,87.07,45.52Z"/></svg>