<svg id="Layer_1" data-name="Layer 1" xmlns="http://www.w3.org/2000/svg" viewBox="0 0 100 100"><defs><style>.cls-1{fill:#444;}</style></defs><path class="cls-1" d="M52.48,49.8c0,6.73,0,13.45,0,20.18A12.41,12.41,0,0,1,52,73.36c-1,3.55-3.87,5.16-7.44,4.15a17.49,17.49,0,0,1-4-1.77C33.27,71.52,26,67.19,18.6,63a13,13,0,0,0-4.91-1.33c-2.2-.23-4.43,0-6.65-.07a6,6,0,0,1-6-6q-.12-5.73,0-11.46a6,6,0,0,1,6-5.95,1.76,1.76,0,0,1,.23,0c6.41,1,11.84-1.27,17.14-4.68S35.56,27.14,41.13,24a18.1,18.1,0,0,1,2.45-1.23c4.93-1.87,8.87.67,9,6,.13,7,0,14.06,0,21.09Z"/><path class="cls-1" d="M73.25,93.09c-1-1.78-2-3.41-3-5.16,14-8.81,21.94-21.29,22-37.89S84.42,20.91,70.27,12l2.92-5.06C85.31,12.75,97.13,28,98.37,46.07,100,70.14,85.64,86.62,73.25,93.09Z"/><path class="cls-1" d="M64.06,22.74c1-1.78,2-3.41,3.07-5.31,11,6.64,17.59,16.16,18.71,28.8,1.39,15.65-5.19,27.64-18.66,36.32-1.09-1.85-2.1-3.59-3.11-5.32C85.11,64.64,85.05,35.43,64.06,22.74Z"/><path class="cls-1" d="M57.9,33.4l3-5.22c8.38,5.27,12.88,12.61,12.63,22.47-.23,9.28-4.72,16.14-12.66,21.07l-3-5.24C70.38,58.63,70.78,41.63,57.9,33.4Z"/></svg>