<svg id="Layer_1" data-name="Layer 1" xmlns="http://www.w3.org/2000/svg" viewBox="0 0 100 100"><defs><style>.cls-1{fill:#444;}</style></defs><path class="cls-1" d="M85,81.46C83.8,80.33,82.67,79.15,81.5,78,78.73,75.29,76,72.59,73.25,70c4.27-8.89,2.9-16.26-3.69-20.87A14.77,14.77,0,0,0,49.2,70c4.75,6.4,12.33,7.69,20.46,3.43.38.37.79.75,1.18,1.14,3.4,3.39,6.78,6.78,10.18,10.16,1.58,1.58,1.76,1.57,3.39,0,.2-.2.38-.42.59-.6C86,83.17,85.9,82.34,85,81.46ZM61,71.71A10.52,10.52,0,1,1,71.66,61.16,10.55,10.55,0,0,1,61,71.71Z"/><path class="cls-1" d="M17.69,46.21v.08h-.06Z"/><polygon class="cls-1" points="17.63 42.86 17.7 42.86 17.7 42.92 17.63 42.86"/><polygon class="cls-1" points="31.88 53.68 31.83 53.74 31.83 53.68 31.88 53.68"/><polygon class="cls-1" points="35.61 53.69 35.61 53.74 35.56 53.69 35.61 53.69"/><path class="cls-1" d="M39,53.68l-.07.07v-.07Z"/><path class="cls-1" d="M42.59,46.5v3.38L39.2,50c-.09,1.26-.19,2.45-.28,3.64H35.61V46.46H28.5v3.61h3.33v3.61H28.34v7H17.76V57.19h6.93V53.62H14.09V50.1l3.6-.19V46.29l3.38.22c.05,1.18.1,2.28.15,3.37h3.44v-7h-7V39.33H28.24c.06,1.05.12,2.15.18,3.38h3.44c.05-1.08.1-2.17.16-3.37h3.41c0,1.06.1,2.16.16,3.47H39c.07,1.25.12,2.3.19,3.48Z"/><path class="cls-1" d="M14.09,14.25V35.52h21.3V14.25ZM31.82,31.94H17.73V17.77H31.82Z"/><path class="cls-1" d="M14.14,64.45V85.78h21.3V64.45ZM31.8,82.16H17.66V68H31.8Z"/><path class="cls-1" d="M64.37,14.26V35.53H85.59V14.26ZM82.09,31.92H67.92V17.8H82.09Z"/><path class="cls-1" d="M95.63,71.81H99.8A11.33,11.33,0,0,1,99.93,73c0,4.06.06,8.12,0,12.18-.13,7.88-5.67,14.06-13.54,14.64-4.76.36-9.56.07-14.48.07V95.41h9.3c1.35,0,2.7,0,4.06,0A10.24,10.24,0,0,0,95.44,85.13c.06-4.28,0-8.57,0-12.85A1.89,1.89,0,0,1,95.63,71.81Z"/><path class="cls-1" d="M28.09.13V4.56H25.56c-3.49,0-7,0-10.48,0A10.27,10.27,0,0,0,4.49,15.13c0,4.17,0,8.34,0,12.51a2.78,2.78,0,0,1-.11.47H.14c0-.45-.12-.93-.12-1.41C0,22.81,0,18.92,0,15,.07,7.11,5.47.85,13.33.2,18.19-.2,23.1.13,28.09.13Z"/><path class="cls-1" d="M71.82,4.58V.16A11.55,11.55,0,0,1,73.11,0c4,0,8,0,12,0A14.72,14.72,0,0,1,99.92,14.71c.08,4.44,0,8.88,0,13.43H95.45c0-4,0-7.92,0-11.85a19.77,19.77,0,0,0-.22-3.36,10.09,10.09,0,0,0-9.88-8.34C80.91,4.53,76.46,4.58,71.82,4.58Z"/><path class="cls-1" d="M28.08,95.41v4.27c-5.44,0-10.81.43-16.09-.12C5.82,98.93.65,93.33.19,87.12-.19,82.09.11,77,.11,71.83H4.48v7.11c0,2,0,3.94,0,5.92a10.28,10.28,0,0,0,10.6,10.55C19.37,95.43,23.64,95.41,28.08,95.41Z"/><polygon class="cls-1" points="42.66 17.83 42.72 17.83 42.72 17.89 42.66 17.83"/><polygon class="cls-1" points="46.4 24.93 46.45 24.93 46.45 24.98 46.4 24.93"/><path class="cls-1" d="M53.48,21.39v3.54h-7V17.83H42.72V14.26h7.11V21.2Z"/><polygon class="cls-1" points="53.48 24.99 53.48 24.93 53.53 24.93 53.48 24.99"/><path class="cls-1" d="M53.66,35.93l-.26-3.81L50,32V28.58l3.52-.19V24.93l-.05.05h7v3.33l-3.41.21v6.91l-3.45.48Z"/><path class="cls-1" d="M53.6,39.08l3.4.18.2-3.46h3.35v3.34l3.56.16v3.51H53.65V39Z"/><polygon class="cls-1" points="42.71 24.94 42.71 24.98 42.66 24.98 42.71 24.94"/><path class="cls-1" d="M42.71,25H46.4v6.93H39.25V28.56l3.46-.16Z"/><polygon class="cls-1" points="46.45 24.98 46.4 24.98 46.4 24.93 46.45 24.98"/><path class="cls-1" d="M42.66,17.89v7.05H39.27V17.72Z"/><polygon class="cls-1" points="42.66 24.94 42.71 24.94 42.66 24.98 42.66 24.94"/><path class="cls-1" d="M42.72,17.89h-.06v-.06Z"/><path class="cls-1" d="M57.2,21.12V14.23h3.32v6.89Z"/><path class="cls-1" d="M68,39.32h3.35v3.35H68Z"/><path class="cls-1" d="M42.54,39l.19,3.65H39.24V39.35l3.34-.3Z"/><path class="cls-1" d="M39.25,68h3.31v3.41H39.25Z"/><path class="cls-1" d="M42.55,78.62H39.3V75.21h3.25Z"/><polygon class="cls-1" points="35.63 57.05 35.63 57.11 35.56 57.11 35.63 57.05"/><polygon class="cls-1" points="38.77 60.97 38.77 60.96 38.77 60.96 38.77 60.97"/><path class="cls-1" d="M38.91,57.11c0,1.28-.09,2.57-.14,3.85l-3.14-.36V57.11Z"/><path class="cls-1" d="M39,57.11h-.07a.13.13,0,0,0,0-.06Z"/><path class="cls-1" d="M46.57,39l-4,0,0,0,.25-3.24h3.31c.13,1.07.27,2.14.4,3.21Z"/><path class="cls-1" d="M53.65,39l-4,0,0,0,.37-3.4,3.61.29,0,0c0,1.06,0,2.12,0,3.17Z"/><path class="cls-1" d="M75.18,39.33h3.28v3.38H75.18Z"/><path class="cls-1" d="M17.63,42.92v3.29l-3.51.18V42.92Z"/><path class="cls-1" d="M17.63,46.21h.06l-.06.07Z"/><polygon class="cls-1" points="17.7 42.92 17.63 42.92 17.63 42.86 17.7 42.92"/><path class="cls-1" d="M31.87,53.68a.13.13,0,0,0,0,.06h-.05Z"/><path class="cls-1" d="M35.56,53.74V57H32c-.06-1.14-.1-2.22-.15-3.3Z"/><polygon class="cls-1" points="35.61 53.74 35.56 53.74 35.56 53.69 35.61 53.74"/><polygon class="cls-1" points="35.63 57.05 35.56 57.11 35.56 57.05 35.63 57.05"/><path class="cls-1" d="M49.65,39l.25,3.7H46.28c.1-1.3.19-2.51.28-3.71l0,0,3.15,0Z"/><path class="cls-1" d="M38.77,61l3.78-.25v3.47H39.38c-.2-1.06-.4-2.15-.6-3.23Z"/><polygon class="cls-1" points="38.92 57.05 38.98 57.05 38.98 57.11 38.92 57.05"/><path class="cls-1" d="M39,53.68v.07h-.07Z"/><path class="cls-1" d="M42.55,53.57v3.48H39c0-1.1,0-2.2,0-3.3Z"/><path class="cls-1" d="M31.87,53.68a.13.13,0,0,0,0,.06h-.05v-.06Z"/><rect class="cls-1" x="35.56" y="53.69" width="0.05" height="0.05"/><path class="cls-1" d="M17.63,46.21h.06v.08h-.06Z"/><rect class="cls-1" x="17.63" y="42.86" width="0.07" height="0.06"/><rect class="cls-1" x="35.56" y="53.69" width="0.05" height="0.05"/><rect class="cls-1" x="35.56" y="57.04" width="0.06" height="0.06"/><path class="cls-1" d="M38.92,57.05H39v.06h-.07A.13.13,0,0,0,38.92,57.05Z"/><path class="cls-1" d="M39,53.68v.07h-.07v-.07Z"/><rect class="cls-1" x="42.66" y="24.94" width="0.05" height="0.04"/><path class="cls-1" d="M42.66,17.83h.06v.06h-.06Z"/><rect class="cls-1" x="46.4" y="24.92" width="0.04" height="0.05"/><rect class="cls-1" x="21.3" y="21.38" width="6.92" height="6.96"/><rect class="cls-1" x="21.35" y="71.68" width="6.9" height="6.88"/><rect class="cls-1" x="71.58" y="21.39" width="6.9" height="6.94"/></svg>