<svg id="Layer_1" data-name="Layer 1" xmlns="http://www.w3.org/2000/svg" viewBox="0 0 100 100"><defs><style>.cls-1{fill:#444;}.cls-2,.cls-3{fill:none;stroke-miterlimit:10;}.cls-2{stroke:#444;stroke-width:1.98px;}.cls-3{stroke:#fff;stroke-width:0.99px;}.cls-4{fill:#fff;}</style></defs><path class="cls-1" d="M100,4.09V29H80.5V24a6.5,6.5,0,0,0-13,0v5h-36V24a6.5,6.5,0,0,0-13,0v5H0V4.09A4.09,4.09,0,0,1,4.09,0H95.91A4.09,4.09,0,0,1,100,4.09Z"/><path class="cls-2" d="M1,32H99a0,0,0,0,1,0,0V90.31A9.69,9.69,0,0,1,89.31,100H10.69A9.69,9.69,0,0,1,1,90.31V32A0,0,0,0,1,1,32Z"/><rect class="cls-1" x="20.77" y="20.5" width="8.27" height="18.5" rx="4.14"/><rect class="cls-1" x="69.95" y="20.5" width="8.27" height="18.5" rx="4.14"/><circle class="cls-1" cx="50.25" cy="63.25" r="24.25"/><polyline class="cls-3" points="40.47 54.91 46.69 67.54 66.22 64.84"/><polygon class="cls-4" points="39.76 53.85 41.67 54.92 43.58 55.99 41.7 57.11 39.81 58.23 39.79 56.04 39.76 53.85"/><polygon class="cls-4" points="68.08 64.92 66.23 66.1 64.39 67.28 64.29 65.09 64.19 62.91 66.13 63.91 68.08 64.92"/></svg>