<svg id="Layer_1" data-name="Layer 1" xmlns="http://www.w3.org/2000/svg" viewBox="0 0 100 100"><defs><style>.cls-1{fill:#444;}.cls-2,.cls-3{fill:#fff;}.cls-3{stroke:#444;stroke-miterlimit:10;}</style></defs><path class="cls-1" d="M100,4.09V29H80.5V24a6.5,6.5,0,0,0-13,0v5h-36V24a6.5,6.5,0,0,0-13,0v5H0V4.09A4.09,4.09,0,0,1,4.09,0H95.91A4.09,4.09,0,0,1,100,4.09Z"/><path class="cls-1" d="M0,32H100a0,0,0,0,1,0,0V90.21A9.79,9.79,0,0,1,90.21,100H9.79A9.79,9.79,0,0,1,0,90.21V32A0,0,0,0,1,0,32Z"/><rect class="cls-2" x="10" y="41" width="15" height="15" rx="3.36"/><rect class="cls-3" x="42" y="41" width="15" height="15" rx="3.36"/><rect class="cls-3" x="74" y="41" width="15" height="15" rx="3.36"/><rect class="cls-3" x="10" y="68" width="15" height="15" rx="3.36"/><rect class="cls-3" x="42" y="68" width="15" height="15" rx="3.36"/><rect class="cls-3" x="74" y="68" width="15" height="15" rx="3.36"/></svg>