<svg id="Layer_1" data-name="Layer 1" xmlns="http://www.w3.org/2000/svg" viewBox="0 0 100 100"><defs><style>.cls-1{fill:#444;}</style></defs><path class="cls-1" d="M-.14,18.75H10.59q10.4,0,14.05.95a10.76,10.76,0,0,1,5.57,3.14,9.85,9.85,0,0,1,2.38,4.85,72.81,72.81,0,0,1,.48,10.51V57.51q0,7.43-.7,9.93a7.45,7.45,0,0,1-2.43,3.92,10.12,10.12,0,0,1-4.29,2,38.48,38.48,0,0,1-7.7.56H-.14ZM14.2,28.18V64.46c2.07,0,3.34-.42,3.82-1.25s.71-3.08.71-6.76V35a28.48,28.48,0,0,0-.24-4.8,2.26,2.26,0,0,0-1.09-1.55A7,7,0,0,0,14.2,28.18Z"/><path class="cls-1" d="M38.42,18.75H62.33v11H52.76V40.24h9V50.73h-9V62.86H63.28v11H38.42Z"/><path class="cls-1" d="M100.31,39.05H86V34a24.88,24.88,0,0,0-.41-5.92,2.14,2.14,0,0,0-3.75-.18c-.31.69-.47,2.44-.47,5.25V59.66a16,16,0,0,0,.47,4.88,1.86,1.86,0,0,0,1.91,1.18,2.11,2.11,0,0,0,2.13-1.33,15.71,15.71,0,0,0,.56-5.18V52.67H83.52V44.29h16.79v29.6h-9l-1.33-4a10,10,0,0,1-3.7,3.83A10.33,10.33,0,0,1,81,75.05a13.69,13.69,0,0,1-6.77-1.75A13,13,0,0,1,69.45,69a13.75,13.75,0,0,1-2-5.44A63.82,63.82,0,0,1,67,55V38.61a54.72,54.72,0,0,1,.85-11.48c.57-2.39,2.19-4.57,4.89-6.56s6.17-3,10.44-3a19.39,19.39,0,0,1,10.45,2.59,12.18,12.18,0,0,1,5.42,6.15,32.54,32.54,0,0,1,1.26,10.33Z"/></svg>