<svg id="Layer_1" data-name="Layer 1" xmlns="http://www.w3.org/2000/svg" viewBox="0 0 100 100"><defs><style>.cls-1{fill:#444;}</style></defs><path class="cls-1" d="M68.61,5.09V21.62H84.4ZM70.8,27.38c-5.67,0-7.86-2.24-7.88-8s0-11.53,0-17.69H17.27c-4.63,0-5.6,1-5.61,5.6q0,42.75,0,85.51c0,4.29,1.16,5.49,5.43,5.49q32.8,0,65.63,0c4.49,0,5.6-1.16,5.61-5.69V27.38C82.14,27.38,76.47,27.4,70.8,27.38ZM28.14,45.8c.21-1.1,2.38-2.59,3.68-2.62q18.21-.28,36.44,0c1.28,0,3.36,1.56,3.61,2.69.46,2.24-1.53,2.75-3.51,2.74-6.14,0-12.27,0-18.4,0s-12,0-18,0C29.86,48.63,27.66,48.35,28.14,45.8ZM68.4,76.17q-18.4,0-36.8,0c-2,0-3.67-.52-3.61-2.87s1.85-2.65,3.78-2.64c6.13,0,12.27,0,18.4,0s12,0,18,0c1.92,0,3.72.24,3.78,2.63S70.36,76.16,68.4,76.17ZM68.24,62.3H31.7C29.77,62.31,28,62,28,59.6s1.86-2.66,3.76-2.66c6.16,0,12.31,0,18.46,0s12.06,0,18.09,0c1.92,0,3.73.28,3.71,2.72S70.13,62.3,68.24,62.3Z"/><path class="cls-1" d="M70.8,27.38c-5.67,0-7.86-2.24-7.88-8s0-11.53,0-17.69H17.27c-4.63,0-5.6,1-5.61,5.6q0,42.75,0,85.51c0,4.29,1.16,5.49,5.43,5.49q32.8,0,65.63,0c4.49,0,5.6-1.16,5.61-5.69V27.38C82.14,27.38,76.47,27.4,70.8,27.38ZM28.14,45.8c.21-1.1,2.38-2.59,3.68-2.62q18.21-.28,36.44,0c1.28,0,3.36,1.56,3.61,2.69.46,2.24-1.53,2.75-3.51,2.74-6.14,0-12.27,0-18.4,0s-12,0-18,0C29.86,48.63,27.66,48.35,28.14,45.8ZM68.4,76.17q-18.4,0-36.8,0c-2,0-3.67-.52-3.61-2.87s1.85-2.65,3.78-2.64c6.13,0,12.27,0,18.4,0s12,0,18,0c1.92,0,3.72.24,3.78,2.63S70.36,76.16,68.4,76.17ZM68.24,62.3H31.7C29.77,62.31,28,62,28,59.6s1.86-2.66,3.76-2.66c6.16,0,12.31,0,18.46,0s12.06,0,18.09,0c1.92,0,3.73.28,3.71,2.72S70.13,62.3,68.24,62.3Z"/><path class="cls-1" d="M68.61,21.62V5.1L84.39,21.62Z"/></svg>