<svg id="Layer_1" data-name="Layer 1" xmlns="http://www.w3.org/2000/svg" viewBox="0 0 100 100"><defs><style>.cls-1{fill:#444;}</style></defs><path class="cls-1" d="M80,30.93A50,50,0,0,1,75.57,36c-2.68,2.28-3.52,4.34-2.36,8.19,2.63,8.8.05,16.79-6.62,23.09s-14.5,8.11-23.11,5.35c-3.34-1.07-5.07-.31-6.53,2.65a30.09,30.09,0,0,0,2.93.84,48.94,48.94,0,0,0,5.51.87c21.75,1.73,38.12-8.86,52.48-23.49,1.22-1.24,1-5.88-.26-7.19C92.31,41,86.32,36.36,80,30.93ZM64.22,24c-6.21-.38-12-1.45-17.67-1-17.64,1.53-31.37,10.9-43.5,23-2.24,2.24-2.29,5.5-.33,7.39,5.58,5.36,11.67,10.2,18,15.64a66.57,66.57,0,0,1,5.39-6c2.13-1.86,2.51-3.53,1.61-6.38C25,48,27.1,40,33.52,33.44s14.68-8.78,23.61-6C60.4,28.41,62.22,27.91,64.22,24Zm16-9.24L15.42,79.6,21,85.22l65-64.9ZM47.38,65.29c11.1,2.85,21.36-8.78,18.14-18.06Zm6.18-30.46C40.1,32,31.89,46,35.37,53,41.34,47,47.37,41,53.56,34.83Z"/><path class="cls-1" d="M80,30.93C86.32,36.36,92.31,41,97.61,46.32c1.3,1.31,1.48,6,.26,7.19C83.51,68.14,67.14,78.73,45.39,77a48.94,48.94,0,0,1-5.51-.87A30.09,30.09,0,0,1,37,75.29c1.46-3,3.19-3.72,6.53-2.65,8.61,2.76,16.56.84,23.11-5.35S75.84,53,73.21,44.2c-1.16-3.85-.32-5.91,2.36-8.19A50,50,0,0,0,80,30.93Z"/><path class="cls-1" d="M64.22,24c-2,3.89-3.82,4.39-7.09,3.39-8.93-2.75-17.05-.64-23.61,6S25,48,27.73,56.76c.9,2.85.52,4.52-1.61,6.38a66.57,66.57,0,0,0-5.39,6c-6.34-5.44-12.43-10.28-18-15.64-2-1.89-1.91-5.15.33-7.39,12.13-12.13,25.86-21.5,43.5-23C52.21,22.57,58,23.64,64.22,24Z"/><path class="cls-1" d="M80.25,14.78l5.67,5.54L21,85.22,15.42,79.6Z"/><path class="cls-1" d="M47.38,65.29,65.52,47.23C68.74,56.51,58.48,68.14,47.38,65.29Z"/><path class="cls-1" d="M53.56,34.83C47.37,41,41.34,47,35.37,53,31.89,46,40.1,32,53.56,34.83Z"/></svg>