<svg id="Layer_1" data-name="Layer 1" xmlns="http://www.w3.org/2000/svg" viewBox="0 0 100 100"><defs><style>.cls-1{fill:#444;}</style></defs><path class="cls-1" d="M23.74,17.16V74.78H9.36V43.89a54.86,54.86,0,0,0-.32-8,3,3,0,0,0-1.76-2q-1.46-.7-6.43-.7H-.57V26.38q10.43-2.23,15.83-9.22Z"/><path class="cls-1" d="M60.32,65v9.82H28.68V66.56q14.06-23,16.71-28.46t2.65-8.52a6.16,6.16,0,0,0-.8-3.51,2.76,2.76,0,0,0-2.44-1.15,2.67,2.67,0,0,0-2.44,1.28c-.54.85-.8,2.55-.8,5.09v5.48H28.68v-2.1a46,46,0,0,1,.5-7.64,13.37,13.37,0,0,1,2.46-5.5,12.33,12.33,0,0,1,5.09-4.09,18.51,18.51,0,0,1,7.51-1.39q8.57,0,13,4.26A14.32,14.32,0,0,1,61.6,31.07a25.62,25.62,0,0,1-2.47,10.47Q56.65,47,44.55,65Z"/><path class="cls-1" d="M92.92,42.12a8.91,8.91,0,0,1,4.88,3.62q1.61,2.5,1.6,11.77,0,6.87-1.56,10.66a11.17,11.17,0,0,1-5.41,5.77,21.51,21.51,0,0,1-9.86,2q-6.84,0-10.73-2.3A11.13,11.13,0,0,1,66.71,68q-1.23-3.33-1.23-11.55V51.89H79.86v9.36A14.93,14.93,0,0,0,80.31,66a1.9,1.9,0,0,0,2,1,2.15,2.15,0,0,0,2.21-1.28c.36-.86.53-3.09.53-6.69v-4a11.82,11.82,0,0,0-.74-4.84,3.72,3.72,0,0,0-2.21-2,22.92,22.92,0,0,0-5.66-.55V39.29a29.14,29.14,0,0,0,6.34-.39,2.78,2.78,0,0,0,1.74-1.71A11.62,11.62,0,0,0,85,33.07V29.86c0-2-.2-3.34-.62-4a2.14,2.14,0,0,0-1.94-1,2.11,2.11,0,0,0-2,1,10.9,10.9,0,0,0-.55,4.32V35H65.48V30.08q0-8.26,3.78-11.16t12-2.9q10.29,0,14,4T98.87,31.2q0,4.85-1.32,7A11.69,11.69,0,0,1,92.92,42.12Z"/></svg>