<svg id="Layer_1" data-name="Layer 1" xmlns="http://www.w3.org/2000/svg" viewBox="0 0 100 100"><defs><style>.cls-1{fill:none;stroke:#444;stroke-miterlimit:10;stroke-width:2px;}.cls-2{fill:#444;}</style></defs><rect class="cls-1" x="1.5" y="1.5" width="97" height="97"/><path class="cls-2" d="M11.46,64.13,25.54,44.7a2.43,2.43,0,0,1,3.8-.19L44.85,62.07a2.43,2.43,0,0,0,4-.52l16-31.87a2.44,2.44,0,0,1,4.28-.15L89.66,64.2A2.46,2.46,0,0,1,90,65.44v.12A2.44,2.44,0,0,1,87.56,68H13.44A2.44,2.44,0,0,1,11,65.56h0A2.46,2.46,0,0,1,11.46,64.13Z"/><circle class="cls-2" cx="39.5" cy="31.5" r="9.5"/></svg>