<svg id="Layer_1" data-name="Layer 1" xmlns="http://www.w3.org/2000/svg" viewBox="0 0 100 100"><defs><style>.cls-1{fill:#444;}</style></defs><path class="cls-1" d="M55.66,68.36H43.31V59.81A11.59,11.59,0,0,1,45.05,53q1.74-2.47,7.64-7,9-6.9,9-14.64a12.33,12.33,0,0,0-3.51-9.25A12.6,12.6,0,0,0,49,18.68q-13,0-15.4,18.06L19.8,34.27q1.26-13.5,10-21.2a30.46,30.46,0,0,1,20.88-7.7q12.11,0,20,7.2a23.18,23.18,0,0,1,7.92,17.9,24,24,0,0,1-2.18,10.11,23.46,23.46,0,0,1-5,7.41q-2.79,2.63-11.78,9.22a9.06,9.06,0,0,0-3.24,3.58C56,62,55.71,64.48,55.66,68.36Zm2.54,9V93.2H43.31V77.36Z"/></svg>