<svg id="Layer_1" data-name="Layer 1" xmlns="http://www.w3.org/2000/svg" viewBox="0 0 100 100"><defs><style>.cls-1{fill:#444;}.cls-2{fill:#fff;}</style></defs><rect class="cls-1" x="8.77" y="66.11" width="22.03" height="20.72"/><rect class="cls-1" x="40.33" y="47.15" width="22.03" height="39.69"/><polygon class="cls-1" points="93.93 70.87 93.93 66.69 78 86.84 81.31 86.84 93.93 70.87"/><polygon class="cls-1" points="93.93 65.61 93.93 61.43 73.84 86.84 77.14 86.84 93.93 65.61"/><polygon class="cls-1" points="75.17 26.19 71.9 26.19 71.9 30.32 75.17 26.19"/><polygon class="cls-1" points="93.93 39.3 93.93 35.12 71.9 62.98 71.9 67.16 93.93 39.3"/><polygon class="cls-1" points="93.93 44.56 93.93 40.38 71.9 68.24 71.9 72.42 93.93 44.56"/><polygon class="cls-1" points="72.98 86.84 93.93 60.35 93.93 56.17 71.9 84.03 71.9 86.84 72.98 86.84"/><polygon class="cls-1" points="93.93 34.04 93.93 29.86 71.9 57.71 71.9 61.9 93.93 34.04"/><polygon class="cls-1" points="93.93 55.09 93.93 50.91 71.9 78.77 71.9 82.94 93.93 55.09"/><polygon class="cls-1" points="71.9 35.58 79.33 26.19 76.02 26.19 71.9 31.4 71.9 35.58"/><polygon class="cls-1" points="93.93 49.83 93.93 45.64 71.9 73.5 71.9 77.68 93.93 49.83"/><polygon class="cls-1" points="71.9 46.11 87.65 26.19 84.34 26.19 71.9 41.93 71.9 46.11"/><polygon class="cls-1" points="93.93 81.4 93.93 77.22 86.32 86.84 89.63 86.84 93.93 81.4"/><polygon class="cls-1" points="93.93 86.66 93.93 82.48 90.48 86.84 93.79 86.84 93.93 86.66"/><polygon class="cls-1" points="71.9 51.37 91.81 26.19 88.5 26.19 71.9 47.19 71.9 51.37"/><polygon class="cls-1" points="93.93 76.14 93.93 71.95 82.16 86.84 85.47 86.84 93.93 76.14"/><polygon class="cls-1" points="71.9 40.85 83.49 26.19 80.18 26.19 71.9 36.66 71.9 40.85"/><polygon class="cls-1" points="71.9 56.63 93.93 28.78 93.93 26.19 92.67 26.19 71.9 52.45 71.9 56.63"/><polygon class="cls-2" points="71.9 31.4 76.02 26.19 75.17 26.19 71.9 30.32 71.9 31.4"/><polygon class="cls-2" points="71.9 36.66 80.18 26.19 79.33 26.19 71.9 35.58 71.9 36.66"/><polygon class="cls-2" points="71.9 41.93 84.34 26.19 83.49 26.19 71.9 40.85 71.9 41.93"/><polygon class="cls-2" points="71.9 47.19 88.5 26.19 87.65 26.19 71.9 46.11 71.9 47.19"/><polygon class="cls-2" points="71.9 52.45 92.67 26.19 91.81 26.19 71.9 51.37 71.9 52.45"/><polygon class="cls-2" points="93.93 29.86 93.93 28.78 71.9 56.63 71.9 57.71 93.93 29.86"/><polygon class="cls-2" points="93.93 35.12 93.93 34.04 71.9 61.9 71.9 62.98 93.93 35.12"/><polygon class="cls-2" points="93.93 40.38 93.93 39.3 71.9 67.16 71.9 68.24 93.93 40.38"/><polygon class="cls-2" points="93.93 45.64 93.93 44.56 71.9 72.42 71.9 73.5 93.93 45.64"/><polygon class="cls-2" points="93.93 50.91 93.93 49.83 71.9 77.68 71.9 78.77 93.93 50.91"/><polygon class="cls-2" points="93.93 56.17 93.93 55.09 71.9 82.94 71.9 84.03 93.93 56.17"/><polygon class="cls-2" points="93.93 61.43 93.93 60.35 72.98 86.84 73.84 86.84 93.93 61.43"/><polygon class="cls-2" points="93.93 66.69 93.93 65.61 77.14 86.84 78 86.84 93.93 66.69"/><polygon class="cls-2" points="93.93 71.95 93.93 70.87 81.31 86.84 82.16 86.84 93.93 71.95"/><polygon class="cls-2" points="93.93 77.22 93.93 76.14 85.47 86.84 86.32 86.84 93.93 77.22"/><polygon class="cls-2" points="93.93 82.48 93.93 81.4 89.63 86.84 90.48 86.84 93.93 82.48"/><polygon class="cls-1" points="93.93 86.66 93.79 86.84 93.93 86.84 93.93 86.66"/><path class="cls-1" d="M1.54.5V96.81a2.7,2.7,0,0,0,2.7,2.69H98.46V94.11H6.93V.5Z"/><polygon class="cls-1" points="83.12 1.7 85.37 8.63 92.66 8.63 86.76 12.91 89.01 19.84 83.12 15.55 77.23 19.84 79.48 12.91 73.59 8.63 80.87 8.63 83.12 1.7"/></svg>