<svg id="Layer_1" data-name="Layer 1" xmlns="http://www.w3.org/2000/svg" viewBox="0 0 100 100"><defs><style>.cls-1{fill:#444;}</style></defs><path class="cls-1" d="M99.84,76.37l-20-12a39.07,39.07,0,0,0-.32,4.76c1,14.4-4.41,17.19-17,16.88C46,85.64,29.44,86,12.87,85.94,4.06,85.93.17,82,.17,73.21q0-23.52,0-47C.18,18,4.22,13.94,12.36,13.93q27.67,0,55.33,0c7.58,0,11.72,4.09,11.8,11.6,0,3,0,6.06,0,10.14L99.84,23.5Zm-70-26.47c0,3.64,0,7.29,0,10.93,0,2.33,1,3,3.11,1.8q9.45-5.48,18.94-10.9c2-1.17,2.17-2.37.05-3.59L33,37.24c-2.44-1.41-3.18-.29-3.18,2C29.84,42.83,29.83,46.36,29.84,49.9Z"/></svg>